<svg xmlns="http://www.w3.org/2000/svg" width="50" height="34" viewBox="0 0 50 34">
    <path fill="#00A2DB" fill-rule="nonzero" d="M49.93 18.651c-.179-1.259-1.513-2.266-4.012-3.002-2.021-.59-4.58-.949-7.368-1.007V4.309a.89.89 0 0 0-.209-.58c-.328-1.124-1.662-2.034-3.972-2.712C32.129.358 29.202 0 26.125 0c-3.066 0-5.964.358-8.154 1.017-1.802.542-3.963 1.55-3.963 3.283 0 .106.01.213.03.32l.11 4.415C7.686 7.825 1.444 11.96.209 18.255.07 18.96 0 19.686 0 20.413c0 6.39 5.346 11.591 11.918 11.591 2.738 0 5.386-.92 7.516-2.595 1.872.426 4.063.658 6.382.678C26.324 32.77 32.298 34 37.873 34c3.067 0 5.954-.368 8.164-1.036C47.85 32.422 50 31.404 50 29.67V19.03a.979.979 0 0 0-.07-.378zM18.568 2.866c2.011-.6 4.7-.939 7.567-.939 2.847 0 5.635.339 7.666.94 2.16.639 2.629 1.297 2.629 1.433 0 .135-.468.803-2.639 1.433-2.02.59-4.809.94-7.656.94-2.748 0-5.356-.31-7.338-.872-2.14-.6-2.738-1.269-2.787-1.482 0-.02 0-.03-.01-.03.01-.135.468-.793 2.568-1.423zM36.56 6.721V9.2c-.09.135-.14.3-.13.464 0 .126-.467.795-2.638 1.434-2.02.59-4.818.939-7.666.939-2.46 0-4.869-.252-6.78-.726-.03-.01-.05-.01-.08-.02a11.848 11.848 0 0 0-3.116-1.714l-.07-2.73c.687.338 1.404.61 2.15.803 2.161.61 4.959.94 7.896.94 3.077 0 6.004-.359 8.234-1.017a10.97 10.97 0 0 0 2.2-.852zM18.6 27.55c-4.053 3.592-10.335 3.302-14.02-.64a9.473 9.473 0 0 1 .658-13.634 10.101 10.101 0 0 1 6.68-2.518c.996 0 1.992.145 2.948.426 3.444 1.055 6.043 3.835 6.79 7.272.13.64.199 1.298.199 1.947a9.513 9.513 0 0 1-3.256 7.147zm2.528.213a11.623 11.623 0 0 0 1.912-3.186c.846.067 1.742.116 2.658.126v.174l.05 3.283a32.212 32.212 0 0 1-4.62-.397zm2.648-8.503c.588.039 1.195.058 1.812.068 0 .02.01.048.01.068l.06 3.36a35.123 35.123 0 0 1-2.06-.087c.149-.746.228-1.51.228-2.266.01-.378-.01-.755-.05-1.143zm2.45-1.86h-.09c-.956 0-1.882-.038-2.738-.096a11.35 11.35 0 0 0-1.782-3.602c1.493.184 2.997.28 4.51.28 3.077 0 6.004-.358 8.244-1.016a13.004 13.004 0 0 0 2.19-.872v2.566c-4.281.117-8.702.988-10.334 2.74zm1.334 1.492c.1-.271.826-.9 2.867-1.462 1.942-.533 4.47-.823 7.129-.823h.13c2.847 0 5.634.32 7.665.92 2.101.62 2.599 1.24 2.629 1.404v.01c-.01.145-.508.813-2.718 1.452-2.041.59-4.73.91-7.577.91-2.688 0-5.257-.3-7.228-.832-1.902-.523-2.668-1.114-2.857-1.414-.01-.058-.02-.116-.04-.165zm20.45 10.778c0 .136-.448.804-2.559 1.443-2.021.61-4.71.95-7.577.95-2.877 0-5.565-.33-7.556-.92-2.111-.63-2.54-1.279-2.54-1.424v-.02l-.049-2.798c2.37 1.171 6.322 1.704 9.946 1.704 3.077 0 5.984-.358 8.214-1.017a11.787 11.787 0 0 0 2.12-.852v2.934zm-.09-5.365c0 .136-.458.795-2.608 1.434-2.041.6-4.75.93-7.637.93-5.466 0-9.17-1.192-9.986-2.131l-.02-.833-.04-2.218a11.8 11.8 0 0 0 2.27.843c2.141.581 4.899.91 7.766.91 3.027 0 5.914-.348 8.134-.988a11.584 11.584 0 0 0 2.2-.852v2.49h.01c0 .125-.089.27-.089.415z"/>
</svg>
