<svg xmlns="http://www.w3.org/2000/svg" width="185" height="50" viewBox="0 0 185 50">
    <g fill="none" fill-rule="evenodd">
        <path fill="#FFF" d="M50 25c0 13.807-11.193 25-25 25S0 38.807 0 25 11.193 0 25 0s25 11.193 25 25"/>
        <path fill="#00A2DB" d="M38.364 24.23l-7.362-5.567c-.788-.597-1.92-.034-1.92.954v11.136c0 .989 1.132 1.551 1.92.955l7.362-5.568c.633-.479.633-1.43 0-1.91m-11.491 8.378L19.51 27.04a1.197 1.197 0 0 0-1.919.955V39.13c0 .989 1.13 1.552 1.92.955l7.36-5.568c.635-.479.635-1.43 0-1.909m.145-14.928l-7.362 5.567c-.788.596-1.92.034-1.92-.955V11.157c0-.989 1.132-1.551 1.92-.955l7.362 5.568c.633.479.633 1.43 0 1.91M26.431 29.628a.687.687 0 0 1-.415-.142l-4.953-3.747a.688.688 0 0 1-.276-.554c0-.22.1-.421.276-.554l4.953-3.746a.687.687 0 0 1 .415-.143.7.7 0 0 1 .7.697v7.492c0 .249-.116.41-.213.502a.714.714 0 0 1-.487.195"/>
        <path fill="#FFF" d="M61.989 20.878h1.864l4.07 10.66 4.175-10.66h1.733l-5.435 13.68h-.972zM78.295 26.602h8.402c-.157-3.02-1.89-4.49-3.99-4.49-2.102 0-4.019 1.575-4.412 4.49m4.411-5.987c3.335 0 5.672 2.442 5.672 6.25 0 .525-.026.892-.08 1.155H78.242c.131 3.492 1.97 5.12 4.464 5.12 1.654 0 3.098-.761 3.939-2.074l1.391.84c-1.05 1.654-3.046 2.784-5.33 2.784-3.702 0-6.25-2.574-6.25-7.038 0-4.359 2.784-7.037 6.25-7.037M93.104 20.878h1.707v2.415c.708-1.601 2.337-2.678 4.254-2.678 2.888 0 4.804 2.153 4.804 5.409v8.403h-1.706v-8.062c0-2.81-1.47-4.201-3.388-4.201-2.073 0-3.964 1.918-3.964 4.621v7.642h-1.707v-13.55zM110.171 26.602h8.403c-.158-3.02-1.891-4.49-3.991-4.49s-4.018 1.575-4.412 4.49m4.412-5.987c3.334 0 5.671 2.442 5.671 6.25 0 .525-.026.892-.079 1.155H110.12c.13 3.492 1.97 5.12 4.464 5.12 1.654 0 3.098-.761 3.938-2.074l1.392.84c-1.05 1.654-3.046 2.784-5.33 2.784-3.703 0-6.25-2.574-6.25-7.038 0-4.359 2.784-7.037 6.25-7.037M132.018 31.985c2.153 0 3.65-1.734 3.65-4.386 0-2.651-1.497-4.384-3.65-4.384-2.049 0-3.545 1.863-3.545 4.384 0 2.52 1.496 4.386 3.545 4.386m-.657-11.527c1.68 0 3.125.787 4.123 2.073v-7.273h3.019v19.169h-3.02v-1.76c-.997 1.287-2.442 2.074-4.122 2.074-3.466 0-5.986-3.124-5.986-7.142 0-4.017 2.52-7.141 5.986-7.141M147.589 32.168c1.943 0 3.44-1.417 3.44-3.203v-.263c-.867-.157-1.787-.288-2.679-.288-1.995 0-2.783.971-2.783 1.969 0 .971.656 1.785 2.022 1.785m.525-5.987c1.128 0 1.995.132 2.915.368-.053-2.337-1.13-3.335-3.152-3.335-1.076 0-2.258.316-3.44.946l-.945-2.416a10.518 10.518 0 0 1 4.99-1.287c3.308 0 5.566 2.022 5.566 5.594v8.376h-3.02v-1.655a5.052 5.052 0 0 1-4.043 1.97c-2.626 0-4.412-1.76-4.412-4.15 0-2.415 2.075-4.41 5.54-4.41M159.404 30.62c.946.865 2.547 1.47 3.913 1.47 1.68 0 2.232-.63 2.232-1.26 0-.762-.447-1.366-3.098-2.154-3.073-.92-4.15-2.284-4.15-4.175 0-2.232 2.023-4.043 5.068-4.043 1.628 0 3.414.524 4.622 1.444l-1.524 2.126c-.84-.603-1.995-.971-3.334-.971-1.313 0-1.97.63-1.97 1.26 0 .683.5 1.208 2.731 1.838 3.414.972 4.648 2.521 4.648 4.464 0 2.311-1.865 4.123-5.33 4.123-2.258 0-4.36-.84-5.62-2.074l1.812-2.049zM172.35 15.258h3.02v7.536c.656-1.26 2.283-2.336 4.148-2.336 2.495 0 4.91 2.021 4.91 5.803v8.166h-3.02v-7.825c0-2.442-1.339-3.361-2.835-3.361-1.734 0-3.204 1.497-3.204 4.07v7.116h-3.02V15.258z"/>
    </g>
</svg>
