<svg xmlns="http://www.w3.org/2000/svg" width="258" height="70" viewBox="0 0 258 70">
    <g fill="none" fill-rule="evenodd">
        <path fill="#00A2DB" d="M69.73 35c0 19.33-15.61 35-34.865 35C15.61 70 0 54.33 0 35S15.61 0 34.865 0C54.12 0 69.73 15.67 69.73 35"/>
        <path fill="#FFF" d="M53.502 33.922l-10.267-7.794c-1.1-.835-2.676-.048-2.676 1.336v15.59c0 1.385 1.577 2.172 2.676 1.337l10.267-7.795a1.68 1.68 0 0 0 0-2.674m-16.025 11.73L27.21 37.855c-1.1-.835-2.676-.048-2.676 1.337v15.59c0 1.383 1.577 2.172 2.676 1.336l10.267-7.795a1.679 1.679 0 0 0 0-2.673m.2-20.9l-10.266 7.795c-1.1.835-2.677.048-2.677-1.337V15.62c0-1.385 1.577-2.172 2.677-1.337l10.266 7.794a1.68 1.68 0 0 1 0 2.674M36.861 41.48a.956.956 0 0 1-.58-.2l-6.907-5.245a.964.964 0 0 1-.385-.776c0-.308.14-.59.385-.776l6.908-5.245c.173-.13.372-.199.58-.199.468 0 .974.373.974.976v10.489c0 .348-.16.574-.296.702a.994.994 0 0 1-.679.274M86.45 29.229h2.6l5.674 14.925 5.823-14.925h2.417l-7.58 19.152H94.03zM109.19 37.243h11.717c-.219-4.228-2.636-6.286-5.565-6.286-2.93 0-5.603 2.205-6.153 6.286m6.153-8.382c4.65 0 7.91 3.42 7.91 8.749 0 .735-.037 1.25-.111 1.617h-14.025c.183 4.89 2.747 7.17 6.226 7.17 2.306 0 4.32-1.067 5.492-2.905l1.94 1.176c-1.464 2.316-4.247 3.897-7.432 3.897-5.164 0-8.716-3.603-8.716-9.852 0-6.102 3.882-9.852 8.716-9.852M129.842 29.229h2.38v3.381c.989-2.242 3.26-3.748 5.933-3.748 4.028 0 6.7 3.014 6.7 7.571v11.765h-2.379V36.912c0-3.934-2.051-5.883-4.724-5.883-2.893 0-5.53 2.685-5.53 6.47v10.699h-2.38v-18.97zM153.644 37.243h11.718c-.22-4.228-2.637-6.286-5.565-6.286-2.93 0-5.603 2.205-6.153 6.286m6.153-8.382c4.65 0 7.91 3.42 7.91 8.749 0 .735-.037 1.25-.111 1.617H153.57c.183 4.89 2.747 7.17 6.226 7.17 2.306 0 4.32-1.067 5.492-2.905l1.94 1.176c-1.464 2.316-4.247 3.897-7.432 3.897-5.165 0-8.717-3.603-8.717-9.852 0-6.102 3.883-9.852 8.717-9.852"/>
        <path fill="#00A2DB" d="M184.111 44.778c3.003 0 5.09-2.426 5.09-6.14 0-3.711-2.087-6.138-5.09-6.138-2.857 0-4.943 2.61-4.943 6.139 0 3.529 2.086 6.14 4.943 6.14m-.915-16.138c2.343 0 4.358 1.102 5.749 2.903V21.362h4.21v26.836h-4.21v-2.463c-1.391 1.8-3.406 2.903-5.749 2.903-4.834 0-8.35-4.374-8.35-10 0-5.623 3.516-9.997 8.35-9.997M205.826 45.036c2.71 0 4.798-1.985 4.798-4.485v-.368c-1.21-.22-2.491-.404-3.736-.404-2.783 0-3.881 1.36-3.881 2.757 0 1.36.915 2.5 2.82 2.5m.732-8.382c1.574 0 2.783.184 4.065.515-.073-3.272-1.575-4.669-4.396-4.669-1.5 0-3.148.442-4.796 1.324l-1.318-3.382c2.087-1.14 4.504-1.802 6.958-1.802 4.614 0 7.762 2.83 7.762 7.83v11.727h-4.21v-2.316c-1.319 1.69-3.296 2.757-5.64 2.757-3.662 0-6.152-2.462-6.152-5.808 0-3.382 2.893-6.176 7.727-6.176M222.304 42.867c1.319 1.213 3.552 2.059 5.457 2.059 2.344 0 3.113-.883 3.113-1.765 0-1.066-.624-1.912-4.321-3.014-4.285-1.287-5.787-3.199-5.787-5.846 0-3.124 2.82-5.66 7.068-5.66 2.27 0 4.76.734 6.445 2.021l-2.124 2.978c-1.172-.846-2.783-1.36-4.65-1.36-1.832 0-2.747.882-2.747 1.765 0 .955.696 1.69 3.808 2.573 4.761 1.36 6.482 3.529 6.482 6.249 0 3.235-2.6 5.771-7.434 5.771-3.149 0-6.079-1.176-7.836-2.903l2.526-2.868zM240.358 21.362h4.211v10.55c.915-1.765 3.185-3.271 5.786-3.271 3.479 0 6.847 2.83 6.847 8.124v11.432h-4.21V37.243c0-3.42-1.868-4.706-3.956-4.706-2.417 0-4.467 2.096-4.467 5.698v9.962h-4.211V21.362z"/>
    </g>
</svg>
