<svg xmlns="http://www.w3.org/2000/svg" width="36" height="35" viewBox="0 0 36 35">
    <path fill="#00A2DB" fill-rule="nonzero" d="M14.057.487c5.449-1.4 10.26.507 12.567 4.157 1.264 2 1.88 4.708 1.878 8.19-.272 3.517-1.167 6.252-2.665 8.166h.378a9 9 0 0 1 8.997 8.735l.003.265v4a1 1 0 0 1-1.993.117L33.215 34v-4a7 7 0 0 0-6.759-6.996l-.24-.004h-1.907c-1.065 3.6-3.213 5.522-6.357 5.522-3.147 0-5.25-1.926-6.222-5.521L9.69 23a7 7 0 0 0-6.996 6.76l-.004.24v4a1 1 0 0 1-1.993.117L.689 34v-4a9 9 0 0 1 8.734-8.996L9.69 21h.53c-1.525-1.787-2.422-4.288-2.673-7.47l-.016-.226-.157-.113C5.498 11.792 4.24 9.912 3.615 7.582l-.088-.352-.47-1.99 1.859.85c.94.43 2.363-.04 3.276-1.182l.092-.117.678-.884c.29-.369.533-.644.827-.928.913-.883 2.15-1.63 4.136-2.448zm-5.86 27.454a1 1 0 0 1 .993.884l.007.116v4.692a1 1 0 0 1-1.993.117l-.007-.117v-4.692a1 1 0 0 1 1-1zm19.803 0a1 1 0 0 1 .993.884l.007.116v4.692a1 1 0 0 1-1.993.117L27 33.633v-4.692a1 1 0 0 1 1-1zm-13.98-4.357l.018.044c.8 1.98 2.086 2.894 3.914 2.894 1.786 0 3.087-.873 3.949-2.751-1.215.402-2.592.572-4.128.504h.012l-.352-.007a10.37 10.37 0 0 1-2.425-.383c-.34-.088-.67-.188-.987-.301zm6.068-14.452l-.029.014a11.63 11.63 0 0 0-1.508.953l-.325.24-.356.273-1.715 1.347c-.309.239-.576.438-.85.634-1.632 1.168-3.552 1.6-5.716 1.314.364 3.474 1.592 5.827 3.727 7.136a.855.855 0 0 1 .197.079 9.852 9.852 0 0 0 1.949.813c.731.19 1.53.303 2.4.342l-.026-.002.323-.006c1.375-.056 2.853-.445 4.436-1.177a1 1 0 0 1 .312-.086l.078-.005c1.84-1.314 2.962-3.649 3.399-7.058-3.193-.304-5.338-1.938-6.296-4.811zm4.845-3.419c-1.843-2.916-5.77-4.474-10.378-3.289l.06-.016-.252.108C13 3.098 12.108 3.615 11.461 4.16l-.145.127-.137.128c-.19.185-.358.37-.555.614l-.254.325-.406.534-.21.268c-.948 1.186-2.295 1.932-3.63 2.069l-.177.013.045.108c.599 1.38 1.522 2.503 2.78 3.387l-.042-.03.05.013c2.155.542 3.917.283 5.36-.75l.308-.224c.155-.115.316-.237.493-.373l1.502-1.182c.352-.275.647-.5.932-.707 1.917-1.394 3.463-2.028 5.202-1.853A7.88 7.88 0 0 1 25.84 7.71a8.55 8.55 0 0 0-.907-1.997zm-2.912 2.888l.016.05c.712 1.988 2.158 3.06 4.453 3.293-.013-.43-.038-.844-.075-1.242-1.231-1.254-2.57-1.937-4.038-2.084a3.355 3.355 0 0 0-.356-.017z"/>
</svg>
