<svg xmlns="http://www.w3.org/2000/svg" width="42" height="38"><g fill="#00A2DB"><path d="M40.427 27.36a.807.807 0 00-1.014.553c-1.503 5.032-5.946 8.413-11.056 8.413-6.377 0-11.565-5.349-11.565-11.923S21.98 12.48 28.357 12.48c5.11 0 9.553 3.381 11.056 8.413a.807.807 0 001.014.554.842.842 0 00.537-1.046c-.813-2.721-2.482-5.165-4.701-6.881a12.818 12.818 0 00-7.906-2.714c-.675 0-1.338.053-1.986.154V5.134c0-1.087-.724-2.633-4.177-3.832C19.776.462 16.577 0 13.186 0c-3.391 0-6.59.462-9.009 1.302C.725 2.501 0 4.047 0 5.134V30.8c0 1.086.725 2.633 4.177 3.832 2.418.84 5.618 1.302 9.009 1.302 2.565 0 5.02-.264 7.129-.763C22.542 36.944 25.332 38 28.357 38c2.877 0 5.61-.938 7.906-2.714 2.219-1.716 3.888-4.16 4.7-6.88a.842.842 0 00-.536-1.047zM13.186 1.673c7.058 0 11.563 2.05 11.563 3.46 0 1.411-4.505 3.462-11.563 3.462-7.059 0-11.563-2.05-11.563-3.462 0-1.41 4.504-3.46 11.563-3.46zM1.623 7.725c.613.432 1.441.855 2.554 1.242 2.419.84 5.618 1.303 9.009 1.303 3.39 0 6.59-.463 9.008-1.303 1.113-.387 1.941-.81 2.555-1.242v3.598a13.085 13.085 0 00-5.323 3.085c-1.873.395-4.024.605-6.24.605-7.059 0-11.563-2.05-11.563-3.462V7.725zm0 6.417c.613.432 1.441.855 2.554 1.241 2.419.84 5.618 1.304 9.009 1.304 1.555 0 3.084-.1 4.519-.29a13.74 13.74 0 00-2.2 4.953c-.766.052-1.543.08-2.32.08-7.058 0-11.562-2.051-11.562-3.463v-3.825zm0 6.417c.613.432 1.441.855 2.554 1.241 2.419.84 5.618 1.303 9.009 1.303.685 0 1.37-.02 2.049-.06a14.104 14.104 0 00.341 4.718c-.786.055-1.586.083-2.39.083-7.059 0-11.563-2.05-11.563-3.46v-3.825zM13.186 34.26c-7.059 0-11.563-2.05-11.563-3.46v-3.826c.613.432 1.441.854 2.554 1.24 2.418.84 5.618 1.303 9.009 1.303.98 0 1.954-.04 2.906-.117a13.69 13.69 0 002.721 4.377c-1.718.317-3.634.483-5.627.483z"/><path d="M28.5 11C21.044 11 15 17.044 15 24.5S21.044 38 28.5 38 42 31.956 42 24.5 35.956 11 28.5 11zm0 2C34.851 13 40 18.149 40 24.5S34.851 36 28.5 36 17 30.851 17 24.5 22.149 13 28.5 13z"/><path d="M34 21.55c0-1.799-1.22-3.307-2.847-3.685v-1.04c0-.455-.357-.825-.797-.825-.44 0-.797.37-.797.826v.948h-2.527v-.948c0-.456-.357-.826-.797-.826-.44 0-.796.37-.796.826v.948h-1.642c-.44 0-.797.37-.797.825 0 .456.357.826.797.826h1.529v10.15h-1.53c-.44 0-.796.37-.796.826 0 .456.357.825.797.825h1.642v.948c0 .456.356.826.796.826.44 0 .797-.37.797-.826v-.948h2.527v.948c0 .456.357.826.797.826.44 0 .797-.37.797-.826v-1.04C32.78 30.758 34 29.25 34 27.45a3.822 3.822 0 00-1.373-2.95A3.822 3.822 0 0034 21.55zm-3.644 8.025H26.92v-4.25h3.437c1.13 0 2.05.954 2.05 2.125 0 1.172-.92 2.125-2.05 2.125zm0-5.9H26.92v-4.25h3.437c1.13 0 2.05.953 2.05 2.125 0 1.171-.92 2.124-2.05 2.124z"/></g></svg>