<svg xmlns="http://www.w3.org/2000/svg" width="32" height="36"><path fill="#00A2DB" stroke="#FFF" stroke-width=".5" d="M30.144 6.505L16.533 1.102a1.448 1.448 0 00-1.066 0L1.857 6.505c-.52.206-.857.69-.857 1.227v6.57c0 9.045 5.717 17.181 14.475 20.6.337.13.713.13 1.05 0C25.283 31.483 31 23.347 31 14.302v-6.57a1.33 1.33 0 00-.856-1.227zm-1.922 7.796c0 7.69-4.722 14.769-12.222 17.928C8.7 29.154 3.778 22.2 3.778 14.301V8.62L16 3.766 28.222 8.62v5.68zm-13.757 4.477l5.97-5.708a1.434 1.434 0 011.964 0c.542.518.542 1.36 0 1.878l-6.952 6.647a1.434 1.434 0 01-1.964 0L9.6 17.884a1.287 1.287 0 010-1.879 1.434 1.434 0 011.964 0l2.9 2.773z"/></svg>